<svg xmlns="http://www.w3.org/2000/svg" xmlns:xlink="http://www.w3.org/1999/xlink" width="500" zoomAndPan="magnify" viewBox="0 0 375 374.999991" height="500" preserveAspectRatio="xMidYMid meet" version="1.0"><defs><filter x="0%" y="0%" width="100%" height="100%" id="7c16d99d1c"><feColorMatrix values="0 0 0 0 1 0 0 0 0 1 0 0 0 0 1 0 0 0 1 0" color-interpolation-filters="sRGB"/></filter><g/><clipPath id="201cd6adf9"><path d="M 0.238281 1 L 172 1 L 172 151 L 0.238281 151 Z M 0.238281 1 " clip-rule="nonzero"/></clipPath><mask id="8afb9b7521"><g filter="url(#7c16d99d1c)"><rect x="-88.5" width="540" fill="#000000" y="-177.499998" height="539.999987" fill-opacity="0.58"/></g></mask><clipPath id="61af73b19c"><path d="M 0.238281 0 L 171.601562 0 L 171.601562 149.28125 L 0.238281 149.28125 Z M 0.238281 0 " clip-rule="nonzero"/></clipPath><clipPath id="47889415c4"><rect x="0" width="172" y="0" height="150"/></clipPath><clipPath id="dcb08ef8fa"><rect x="0" width="172" y="0" height="150"/></clipPath><clipPath id="9f01a2f805"><path d="M 235 1 L 365.519531 1 L 365.519531 153.878906 L 235 153.878906 Z M 235 1 " clip-rule="nonzero"/></clipPath><mask id="128b031a96"><g filter="url(#7c16d99d1c)"><rect x="-88.5" width="540" fill="#000000" y="-177.499998" height="539.999987" fill-opacity="0.58"/></g></mask><clipPath id="16941bb1af"><path d="M 0.921875 0.480469 L 130.519531 0.480469 L 130.519531 152.878906 L 0.921875 152.878906 Z M 0.921875 0.480469 " clip-rule="nonzero"/></clipPath><clipPath id="fec7908265"><rect x="0" width="131" y="0" height="153"/></clipPath><clipPath id="e445f5e843"><rect x="0" width="131" y="0" height="153"/></clipPath><clipPath id="46f6edf9f3"><rect x="0" width="43" y="0" height="150"/></clipPath><clipPath id="3ad82ee828"><path d="M 189 0.519531 L 246 0.519531 L 246 151 L 189 151 Z M 189 0.519531 " clip-rule="nonzero"/></clipPath><clipPath id="e3e8fae3af"><rect x="0" width="57" y="0" height="151"/></clipPath><clipPath id="1d718c765d"><rect x="0" width="366" y="0" height="154"/></clipPath></defs><g transform="matrix(1, 0, 0, 1, 6, 95)"><g clip-path="url(#1d718c765d)"><g clip-path="url(#201cd6adf9)"><g mask="url(#8afb9b7521)"><g transform="matrix(1, 0, 0, 1, 0, 1)"><g clip-path="url(#dcb08ef8fa)"><g clip-path="url(#61af73b19c)"><g><g clip-path="url(#47889415c4)"><g fill="#c3b2a9" fill-opacity="1"><g transform="translate(0.738893, 119.342023)"><g><path d="M 28.3125 1.203125 C 23.3125 1.203125 19.066406 -0.144531 15.578125 -2.84375 L 15.578125 0.15625 L 6.140625 0.15625 L 6.140625 -78.328125 L 15.578125 -78.328125 L 15.578125 -44.625 C 19.171875 -47.425781 23.414062 -48.828125 28.3125 -48.828125 C 36 -48.828125 42.1875 -46.53125 46.875 -41.9375 C 51.570312 -37.34375 53.921875 -31.300781 53.921875 -23.8125 C 53.921875 -16.320312 51.570312 -10.28125 46.875 -5.6875 C 42.1875 -1.09375 36 1.203125 28.3125 1.203125 Z M 29.046875 -0.296875 C 33.347656 -0.296875 36.695312 -2.019531 39.09375 -5.46875 C 41.488281 -8.914062 42.734375 -15.03125 42.828125 -23.8125 C 42.734375 -32.695312 41.488281 -38.835938 39.09375 -42.234375 C 36.695312 -45.628906 33.347656 -47.328125 29.046875 -47.328125 C 26.648438 -47.328125 24.28125 -47.023438 21.9375 -46.421875 C 19.59375 -45.828125 17.472656 -44.582031 15.578125 -42.6875 L 15.578125 -4.796875 C 17.472656 -2.898438 19.59375 -1.675781 21.9375 -1.125 C 24.28125 -0.570312 26.648438 -0.296875 29.046875 -0.296875 Z M 29.046875 -0.296875 "/></g></g></g><g fill="#c3b2a9" fill-opacity="1"><g transform="translate(48.658932, 119.342023)"><g><path d="M 28.90625 1.203125 C 21.3125 1.097656 15.21875 -1.25 10.625 -5.84375 C 6.039062 -10.4375 3.75 -16.425781 3.75 -23.8125 C 3.75 -28.707031 4.921875 -33.023438 7.265625 -36.765625 C 9.609375 -40.515625 12.703125 -43.460938 16.546875 -45.609375 C 20.390625 -47.753906 24.507812 -48.828125 28.90625 -48.828125 C 33.300781 -48.828125 37.394531 -47.753906 41.1875 -45.609375 C 44.976562 -43.460938 48.046875 -40.515625 50.390625 -36.765625 C 52.742188 -33.023438 53.921875 -28.707031 53.921875 -23.8125 C 53.921875 -16.425781 51.644531 -10.4375 47.09375 -5.84375 C 42.550781 -1.25 36.488281 1.097656 28.90625 1.203125 Z M 28.90625 -0.296875 C 33.300781 -0.296875 36.742188 -2.039062 39.234375 -5.53125 C 41.734375 -9.03125 42.984375 -15.320312 42.984375 -24.40625 C 42.984375 -30.394531 42.382812 -35.035156 41.1875 -38.328125 C 39.988281 -41.628906 38.335938 -43.953125 36.234375 -45.296875 C 34.140625 -46.648438 31.695312 -47.328125 28.90625 -47.328125 C 26.113281 -47.328125 23.640625 -46.648438 21.484375 -45.296875 C 19.335938 -43.953125 17.664062 -41.628906 16.46875 -38.328125 C 15.269531 -35.035156 14.671875 -30.394531 14.671875 -24.40625 C 14.671875 -19.8125 15.046875 -15.71875 15.796875 -12.125 C 16.546875 -8.53125 17.941406 -5.660156 19.984375 -3.515625 C 22.035156 -1.367188 25.007812 -0.296875 28.90625 -0.296875 Z M 28.90625 -0.296875 "/></g></g></g><g fill="#c3b2a9" fill-opacity="1"><g transform="translate(96.578971, 119.342023)"><g><path d="M 21.859375 1.203125 C 18.765625 1.203125 15.941406 0.53125 13.390625 -0.8125 C 10.847656 -2.164062 8.78125 -3.941406 7.1875 -6.140625 C 5.59375 -8.335938 4.742188 -10.632812 4.640625 -13.03125 C 4.546875 -14.726562 4.921875 -16.050781 5.765625 -17 C 6.609375 -17.945312 7.679688 -18.421875 8.984375 -18.421875 C 10.085938 -18.421875 10.988281 -18.070312 11.6875 -17.375 C 12.382812 -16.675781 12.734375 -15.925781 12.734375 -15.125 C 12.734375 -13.425781 12.503906 -12.148438 12.046875 -11.296875 C 11.597656 -10.453125 11.375 -9.132812 11.375 -7.34375 C 11.375 -5.738281 12.394531 -4.160156 14.4375 -2.609375 C 16.488281 -1.066406 18.960938 -0.296875 21.859375 -0.296875 C 24.359375 -0.296875 26.582031 -0.867188 28.53125 -2.015625 C 30.476562 -3.171875 31.453125 -4.945312 31.453125 -7.34375 C 31.453125 -9.9375 30.628906 -12.207031 28.984375 -14.15625 C 27.335938 -16.101562 25.289062 -17.898438 22.84375 -19.546875 C 20.394531 -21.191406 17.921875 -22.8125 15.421875 -24.40625 C 12.929688 -26.007812 10.859375 -27.757812 9.203125 -29.65625 C 7.554688 -31.550781 6.734375 -33.695312 6.734375 -36.09375 C 6.734375 -39.289062 8.207031 -42.210938 11.15625 -44.859375 C 14.101562 -47.503906 18.023438 -48.828125 22.921875 -48.828125 C 26.710938 -48.828125 30.03125 -47.828125 32.875 -45.828125 C 35.71875 -43.828125 37.140625 -41.582031 37.140625 -39.09375 C 37.140625 -37.789062 36.710938 -36.613281 35.859375 -35.5625 C 35.015625 -34.519531 34.046875 -34 32.953125 -34 C 31.453125 -34 30.425781 -34.597656 29.875 -35.796875 C 29.320312 -36.992188 29.046875 -38.34375 29.046875 -39.84375 C 29.046875 -42.03125 28.722656 -43.820312 28.078125 -45.21875 C 27.429688 -46.625 25.660156 -47.328125 22.765625 -47.328125 C 19.671875 -47.328125 17.445312 -46.398438 16.09375 -44.546875 C 14.75 -42.703125 14.078125 -41.132812 14.078125 -39.84375 C 14.078125 -37.84375 14.925781 -36.066406 16.625 -34.515625 C 18.320312 -32.972656 20.441406 -31.523438 22.984375 -30.171875 C 25.535156 -28.828125 28.054688 -27.378906 30.546875 -25.828125 C 33.046875 -24.285156 35.144531 -22.515625 36.84375 -20.515625 C 38.539062 -18.515625 39.390625 -16.117188 39.390625 -13.328125 C 39.390625 -10.429688 38.738281 -8.035156 37.4375 -6.140625 C 36.144531 -4.242188 34.546875 -2.769531 32.640625 -1.71875 C 30.742188 -0.675781 28.820312 0.0664062 26.875 0.515625 C 24.9375 0.972656 23.265625 1.203125 21.859375 1.203125 Z M 21.859375 1.203125 "/></g></g></g><g fill="#c3b2a9" fill-opacity="1"><g transform="translate(130.871533, 119.342023)"><g><path d="M 21.859375 1.203125 C 18.765625 1.203125 15.941406 0.53125 13.390625 -0.8125 C 10.847656 -2.164062 8.78125 -3.941406 7.1875 -6.140625 C 5.59375 -8.335938 4.742188 -10.632812 4.640625 -13.03125 C 4.546875 -14.726562 4.921875 -16.050781 5.765625 -17 C 6.609375 -17.945312 7.679688 -18.421875 8.984375 -18.421875 C 10.085938 -18.421875 10.988281 -18.070312 11.6875 -17.375 C 12.382812 -16.675781 12.734375 -15.925781 12.734375 -15.125 C 12.734375 -13.425781 12.503906 -12.148438 12.046875 -11.296875 C 11.597656 -10.453125 11.375 -9.132812 11.375 -7.34375 C 11.375 -5.738281 12.394531 -4.160156 14.4375 -2.609375 C 16.488281 -1.066406 18.960938 -0.296875 21.859375 -0.296875 C 24.359375 -0.296875 26.582031 -0.867188 28.53125 -2.015625 C 30.476562 -3.171875 31.453125 -4.945312 31.453125 -7.34375 C 31.453125 -9.9375 30.628906 -12.207031 28.984375 -14.15625 C 27.335938 -16.101562 25.289062 -17.898438 22.84375 -19.546875 C 20.394531 -21.191406 17.921875 -22.8125 15.421875 -24.40625 C 12.929688 -26.007812 10.859375 -27.757812 9.203125 -29.65625 C 7.554688 -31.550781 6.734375 -33.695312 6.734375 -36.09375 C 6.734375 -39.289062 8.207031 -42.210938 11.15625 -44.859375 C 14.101562 -47.503906 18.023438 -48.828125 22.921875 -48.828125 C 26.710938 -48.828125 30.03125 -47.828125 32.875 -45.828125 C 35.71875 -43.828125 37.140625 -41.582031 37.140625 -39.09375 C 37.140625 -37.789062 36.710938 -36.613281 35.859375 -35.5625 C 35.015625 -34.519531 34.046875 -34 32.953125 -34 C 31.453125 -34 30.425781 -34.597656 29.875 -35.796875 C 29.320312 -36.992188 29.046875 -38.34375 29.046875 -39.84375 C 29.046875 -42.03125 28.722656 -43.820312 28.078125 -45.21875 C 27.429688 -46.625 25.660156 -47.328125 22.765625 -47.328125 C 19.671875 -47.328125 17.445312 -46.398438 16.09375 -44.546875 C 14.75 -42.703125 14.078125 -41.132812 14.078125 -39.84375 C 14.078125 -37.84375 14.925781 -36.066406 16.625 -34.515625 C 18.320312 -32.972656 20.441406 -31.523438 22.984375 -30.171875 C 25.535156 -28.828125 28.054688 -27.378906 30.546875 -25.828125 C 33.046875 -24.285156 35.144531 -22.515625 36.84375 -20.515625 C 38.539062 -18.515625 39.390625 -16.117188 39.390625 -13.328125 C 39.390625 -10.429688 38.738281 -8.035156 37.4375 -6.140625 C 36.144531 -4.242188 34.546875 -2.769531 32.640625 -1.71875 C 30.742188 -0.675781 28.820312 0.0664062 26.875 0.515625 C 24.9375 0.972656 23.265625 1.203125 21.859375 1.203125 Z M 21.859375 1.203125 "/></g></g></g></g></g></g></g></g></g></g><g clip-path="url(#9f01a2f805)"><g mask="url(#128b031a96)"><g transform="matrix(1, 0, 0, 1, 235, 1)"><g clip-path="url(#e445f5e843)"><g clip-path="url(#16941bb1af)"><g><g clip-path="url(#fec7908265)"><g fill="#c3b2a9" fill-opacity="1"><g transform="translate(1.139645, 120.53153)"><g><path d="M 30.84375 0 L 30.84375 -3.75 C 28.644531 -1.550781 26.125 -0.101562 23.28125 0.59375 C 20.4375 1.289062 17.664062 1.335938 14.96875 0.734375 C 12.28125 0.140625 9.984375 -0.898438 8.078125 -2.390625 C 6.179688 -3.890625 5.085938 -5.738281 4.796875 -7.9375 C 4.390625 -11.03125 4.984375 -13.597656 6.578125 -15.640625 C 8.179688 -17.691406 10.332031 -19.363281 13.03125 -20.65625 C 15.726562 -21.957031 18.421875 -23.082031 21.109375 -24.03125 C 23.804688 -24.976562 26.101562 -25.976562 28 -27.03125 C 29.894531 -28.082031 30.84375 -29.304688 30.84375 -30.703125 C 30.84375 -35.296875 30.664062 -38.789062 30.3125 -41.1875 C 29.96875 -43.582031 29.195312 -45.203125 28 -46.046875 C 26.800781 -46.898438 24.90625 -47.328125 22.3125 -47.328125 C 20.3125 -47.328125 18.488281 -47 16.84375 -46.34375 C 15.195312 -45.695312 14.375 -45.125 14.375 -44.625 C 14.375 -44.519531 14.523438 -44.394531 14.828125 -44.25 C 15.128906 -44.101562 15.328125 -43.929688 15.421875 -43.734375 C 16.523438 -42.628906 17.078125 -41.378906 17.078125 -39.984375 C 17.078125 -38.679688 16.625 -37.554688 15.71875 -36.609375 C 14.820312 -35.660156 13.675781 -35.1875 12.28125 -35.1875 C 10.78125 -35.1875 9.601562 -35.734375 8.75 -36.828125 C 7.90625 -37.929688 7.484375 -39.132812 7.484375 -40.4375 C 7.484375 -42.226562 8.332031 -43.75 10.03125 -45 C 11.726562 -46.25 13.773438 -47.195312 16.171875 -47.84375 C 18.566406 -48.488281 20.710938 -48.8125 22.609375 -48.8125 C 27.503906 -48.8125 31.671875 -47.460938 35.109375 -44.765625 C 38.554688 -42.078125 40.28125 -37.4375 40.28125 -30.84375 L 40.28125 0 Z M 30.84375 -6.140625 L 30.84375 -26.65625 C 28.644531 -25.457031 26.097656 -24.109375 23.203125 -22.609375 C 20.316406 -21.109375 17.898438 -19.257812 15.953125 -17.0625 C 14.003906 -14.875 13.179688 -12.082031 13.484375 -8.6875 C 13.773438 -6.488281 14.921875 -4.738281 16.921875 -3.4375 C 18.921875 -2.144531 21.242188 -1.644531 23.890625 -1.9375 C 26.535156 -2.238281 28.851562 -3.640625 30.84375 -6.140625 Z M 30.84375 -6.140625 "/></g></g></g><g fill="#c3b2a9" fill-opacity="1"><g transform="translate(36.326532, 120.53153)"><g><path d="M 28.296875 1.203125 C 23.304688 1.203125 19.066406 -0.144531 15.578125 -2.84375 L 15.578125 0.15625 L 6.140625 0.15625 L 6.140625 -78.3125 L 15.578125 -78.3125 L 15.578125 -44.625 C 19.171875 -47.414062 23.410156 -48.8125 28.296875 -48.8125 C 35.984375 -48.8125 42.171875 -46.515625 46.859375 -41.921875 C 51.554688 -37.335938 53.90625 -31.300781 53.90625 -23.8125 C 53.90625 -16.320312 51.554688 -10.28125 46.859375 -5.6875 C 42.171875 -1.09375 35.984375 1.203125 28.296875 1.203125 Z M 29.046875 -0.296875 C 33.335938 -0.296875 36.679688 -2.015625 39.078125 -5.453125 C 41.472656 -8.898438 42.722656 -15.019531 42.828125 -23.8125 C 42.722656 -32.695312 41.472656 -38.835938 39.078125 -42.234375 C 36.679688 -45.628906 33.335938 -47.328125 29.046875 -47.328125 C 26.648438 -47.328125 24.28125 -47.023438 21.9375 -46.421875 C 19.59375 -45.828125 17.472656 -44.578125 15.578125 -42.671875 L 15.578125 -4.796875 C 17.472656 -2.898438 19.59375 -1.675781 21.9375 -1.125 C 24.28125 -0.570312 26.648438 -0.296875 29.046875 -0.296875 Z M 29.046875 -0.296875 "/></g></g></g><g fill="#c3b2a9" fill-opacity="1"><g transform="translate(82.74388, 120.53153)"><g><path d="M 0.296875 30.703125 C -1.796875 30.296875 -3.238281 29.21875 -4.03125 27.46875 C -4.832031 25.726562 -4.910156 24.007812 -4.265625 22.3125 C -3.617188 20.613281 -2.195312 19.765625 0 19.765625 C 1.59375 19.765625 2.789062 20.1875 3.59375 21.03125 C 4.394531 21.882812 4.992188 22.832031 5.390625 23.875 C 5.785156 24.925781 6.234375 25.828125 6.734375 26.578125 C 7.234375 27.328125 8.035156 27.601562 9.140625 27.40625 C 10.535156 27.300781 11.753906 26.453125 12.796875 24.859375 C 13.847656 23.265625 15.171875 20.59375 16.765625 16.84375 C 18.367188 13.101562 20.566406 7.890625 23.359375 1.203125 L 3.140625 -47.328125 L 13.484375 -47.328125 L 28.296875 -10.625 L 43.875 -47.171875 L 45.375 -47.171875 L 16.765625 20.515625 C 15.566406 23.304688 14.34375 25.425781 13.09375 26.875 C 11.851562 28.320312 10.535156 29.394531 9.140625 30.09375 C 7.640625 30.789062 6.140625 31.140625 4.640625 31.140625 C 3.140625 31.140625 1.691406 30.992188 0.296875 30.703125 Z M 0.296875 30.703125 "/></g></g></g></g></g></g></g></g></g></g><g transform="matrix(1, 0, 0, 1, 164, 1)"><g clip-path="url(#46f6edf9f3)"><g fill="#c3b2a9" fill-opacity="1"><g transform="translate(1.281266, 119.342023)"><g><path d="M 30.859375 0 L 30.859375 -3.75 C 28.660156 -1.550781 26.132812 -0.101562 23.28125 0.59375 C 20.4375 1.289062 17.664062 1.335938 14.96875 0.734375 C 12.28125 0.140625 9.984375 -0.898438 8.078125 -2.390625 C 6.179688 -3.890625 5.085938 -5.738281 4.796875 -7.9375 C 4.390625 -11.03125 4.984375 -13.597656 6.578125 -15.640625 C 8.179688 -17.691406 10.332031 -19.363281 13.03125 -20.65625 C 15.726562 -21.957031 18.421875 -23.082031 21.109375 -24.03125 C 23.804688 -24.976562 26.101562 -25.976562 28 -27.03125 C 29.90625 -28.082031 30.859375 -29.304688 30.859375 -30.703125 C 30.859375 -35.296875 30.679688 -38.789062 30.328125 -41.1875 C 29.972656 -43.582031 29.195312 -45.203125 28 -46.046875 C 26.800781 -46.898438 24.90625 -47.328125 22.3125 -47.328125 C 20.3125 -47.328125 18.488281 -47 16.84375 -46.34375 C 15.195312 -45.695312 14.375 -45.125 14.375 -44.625 C 14.375 -44.53125 14.523438 -44.40625 14.828125 -44.25 C 15.128906 -44.101562 15.328125 -43.929688 15.421875 -43.734375 C 16.523438 -42.628906 17.078125 -41.378906 17.078125 -39.984375 C 17.078125 -38.691406 16.625 -37.566406 15.71875 -36.609375 C 14.820312 -35.660156 13.675781 -35.1875 12.28125 -35.1875 C 10.78125 -35.1875 9.601562 -35.734375 8.75 -36.828125 C 7.90625 -37.929688 7.484375 -39.132812 7.484375 -40.4375 C 7.484375 -42.226562 8.332031 -43.75 10.03125 -45 C 11.726562 -46.25 13.773438 -47.195312 16.171875 -47.84375 C 18.566406 -48.5 20.710938 -48.828125 22.609375 -48.828125 C 27.503906 -48.828125 31.671875 -47.476562 35.109375 -44.78125 C 38.554688 -42.082031 40.28125 -37.441406 40.28125 -30.859375 L 40.28125 0 Z M 30.859375 -6.140625 L 30.859375 -26.65625 C 28.660156 -25.457031 26.113281 -24.109375 23.21875 -22.609375 C 20.320312 -21.117188 17.898438 -19.273438 15.953125 -17.078125 C 14.003906 -14.878906 13.179688 -12.082031 13.484375 -8.6875 C 13.773438 -6.488281 14.921875 -4.738281 16.921875 -3.4375 C 18.921875 -2.144531 21.242188 -1.644531 23.890625 -1.9375 C 26.535156 -2.238281 28.859375 -3.640625 30.859375 -6.140625 Z M 30.859375 -6.140625 "/></g></g></g></g></g><g clip-path="url(#3ad82ee828)"><g transform="matrix(1, 0, 0, 1, 189, 0)"><g clip-path="url(#e3e8fae3af)"><g fill="#c3b2a9" fill-opacity="1"><g transform="translate(0.932739, 120.451525)"><g><path d="M 28.46875 1.203125 C 23.445312 1.203125 19.179688 -0.148438 15.671875 -2.859375 L 15.671875 0.15625 L 6.171875 0.15625 L 6.171875 -78.796875 L 15.671875 -78.796875 L 15.671875 -44.890625 C 19.285156 -47.703125 23.550781 -49.109375 28.46875 -49.109375 C 36.207031 -49.109375 42.4375 -46.796875 47.15625 -42.171875 C 51.875 -37.554688 54.234375 -31.484375 54.234375 -23.953125 C 54.234375 -16.421875 51.875 -10.34375 47.15625 -5.71875 C 42.4375 -1.101562 36.207031 1.203125 28.46875 1.203125 Z M 29.234375 -0.296875 C 33.546875 -0.296875 36.90625 -2.03125 39.3125 -5.5 C 41.726562 -8.96875 42.988281 -15.117188 43.09375 -23.953125 C 42.988281 -32.890625 41.726562 -39.066406 39.3125 -42.484375 C 36.90625 -45.898438 33.546875 -47.609375 29.234375 -47.609375 C 26.816406 -47.609375 24.425781 -47.304688 22.0625 -46.703125 C 19.707031 -46.097656 17.578125 -44.84375 15.671875 -42.9375 L 15.671875 -4.828125 C 17.578125 -2.910156 19.707031 -1.675781 22.0625 -1.125 C 24.425781 -0.570312 26.816406 -0.296875 29.234375 -0.296875 Z M 29.234375 -0.296875 "/></g></g></g></g></g></g></g></g></svg>