<svg xmlns="http://www.w3.org/2000/svg" xmlns:xlink="http://www.w3.org/1999/xlink" width="500" zoomAndPan="magnify" viewBox="0 0 375 374.999991" height="500" preserveAspectRatio="xMidYMid meet" version="1.0"><defs><g/><clipPath id="7b04b450e7"><path d="M 0.28125 0 L 160 0 L 160 375 L 0.28125 375 Z M 0.28125 0 " clip-rule="nonzero"/></clipPath><clipPath id="8cc654e165"><rect x="0" width="160" y="0" height="375"/></clipPath><clipPath id="77b3d92e6e"><path d="M 95 0 L 308.921875 0 L 308.921875 375 L 95 375 Z M 95 0 " clip-rule="nonzero"/></clipPath><clipPath id="30d0f7623f"><rect x="0" width="214" y="0" height="375"/></clipPath><clipPath id="4bb1f73c0e"><rect x="0" width="309" y="0" height="375"/></clipPath></defs><g transform="matrix(1, 0, 0, 1, 35, 0)"><g clip-path="url(#4bb1f73c0e)"><g clip-path="url(#7b04b450e7)"><g><g clip-path="url(#8cc654e165)"><g fill="#c3b2a9" fill-opacity="1"><g transform="translate(3.4368, 336.417976)"><g><path d="M 117.5 0 L 117.5 -14.265625 C 109.132812 -5.898438 99.53125 -0.382812 88.6875 2.28125 C 77.851562 4.945312 67.300781 5.132812 57.03125 2.84375 C 46.769531 0.5625 38.023438 -3.425781 30.796875 -9.125 C 23.578125 -14.832031 19.394531 -21.867188 18.25 -30.234375 C 16.726562 -42.015625 19.007812 -51.800781 25.09375 -59.59375 C 31.175781 -67.394531 39.347656 -73.765625 49.609375 -78.703125 C 59.878906 -83.648438 70.148438 -87.929688 80.421875 -91.546875 C 90.691406 -95.160156 99.4375 -98.960938 106.65625 -102.953125 C 113.882812 -106.941406 117.5 -111.597656 117.5 -116.921875 C 117.5 -134.421875 116.832031 -147.734375 115.5 -156.859375 C 114.164062 -165.984375 111.21875 -172.160156 106.65625 -175.390625 C 102.09375 -178.617188 94.867188 -180.234375 84.984375 -180.234375 C 77.378906 -180.234375 70.4375 -179 64.15625 -176.53125 C 57.882812 -174.0625 54.75 -171.875 54.75 -169.96875 C 54.75 -169.59375 55.316406 -169.117188 56.453125 -168.546875 C 57.597656 -167.972656 58.363281 -167.304688 58.75 -166.546875 C 62.925781 -162.367188 65.015625 -157.617188 65.015625 -152.296875 C 65.015625 -147.347656 63.300781 -143.066406 59.875 -139.453125 C 56.457031 -135.835938 52.085938 -134.03125 46.765625 -134.03125 C 41.066406 -134.03125 36.597656 -136.125 33.359375 -140.3125 C 30.128906 -144.5 28.515625 -149.0625 28.515625 -154 C 28.515625 -160.84375 31.742188 -166.640625 38.203125 -171.390625 C 44.671875 -176.148438 52.46875 -179.765625 61.59375 -182.234375 C 70.726562 -184.703125 78.90625 -185.9375 86.125 -185.9375 C 104.757812 -185.9375 120.632812 -180.800781 133.75 -170.53125 C 146.875 -160.269531 153.4375 -142.59375 153.4375 -117.5 L 153.4375 0 Z M 117.5 -23.390625 L 117.5 -101.53125 C 109.132812 -96.96875 99.4375 -91.832031 88.40625 -86.125 C 77.382812 -80.425781 68.164062 -73.390625 60.75 -65.015625 C 53.332031 -56.648438 50.191406 -46.003906 51.328125 -33.078125 C 52.472656 -24.710938 56.847656 -18.054688 64.453125 -13.109375 C 72.054688 -8.171875 80.894531 -6.269531 90.96875 -7.40625 C 101.050781 -8.550781 109.894531 -13.878906 117.5 -23.390625 Z M 117.5 -23.390625 "/></g></g></g></g></g></g><g clip-path="url(#77b3d92e6e)"><g transform="matrix(1, 0, 0, 1, 95, 0)"><g clip-path="url(#30d0f7623f)"><g fill="#c3b2a9" fill-opacity="1"><g transform="translate(2.321539, 336.834945)"><g><path d="M 108.4375 4.59375 C 89.3125 4.59375 73.054688 -0.570312 59.671875 -10.90625 L 59.671875 0.578125 L 23.53125 0.578125 L 23.53125 -300.09375 L 59.671875 -300.09375 L 59.671875 -170.984375 C 73.441406 -181.691406 89.695312 -187.046875 108.4375 -187.046875 C 137.894531 -187.046875 161.613281 -178.25 179.59375 -160.65625 C 197.570312 -143.0625 206.5625 -119.921875 206.5625 -91.234375 C 206.5625 -62.546875 197.570312 -39.398438 179.59375 -21.796875 C 161.613281 -4.203125 137.894531 4.59375 108.4375 4.59375 Z M 111.3125 -1.140625 C 127.757812 -1.140625 140.570312 -7.738281 149.75 -20.9375 C 158.9375 -34.132812 163.71875 -57.566406 164.09375 -91.234375 C 163.71875 -125.273438 158.9375 -148.796875 149.75 -161.796875 C 140.570312 -174.804688 127.757812 -181.3125 111.3125 -181.3125 C 102.132812 -181.3125 93.050781 -180.160156 84.0625 -177.859375 C 75.070312 -175.566406 66.941406 -170.789062 59.671875 -163.53125 L 59.671875 -18.359375 C 66.941406 -11.085938 75.070312 -6.398438 84.0625 -4.296875 C 93.050781 -2.191406 102.132812 -1.140625 111.3125 -1.140625 Z M 111.3125 -1.140625 "/></g></g></g></g></g></g></g></g></svg>